<svg width="1440" height="820" viewBox="0 0 1440 820" fill="none" xmlns="http://www.w3.org/2000/svg" role="img" aria-labelledby="title desc">
  <title id="title">Opaline desktop UI preview</title>
  <desc id="desc">A screenshot-style preview of an Electron shell with translucent sidebar, thread canvas, composer, right inspector, and terminal drawer.</desc>
  <defs>
    <linearGradient id="wall" x1="0" y1="0" x2="1440" y2="820" gradientUnits="userSpaceOnUse">
      <stop stop-color="#d7ecf3"/>
      <stop offset="0.35" stop-color="#e8e0ef"/>
      <stop offset="0.72" stop-color="#d9ecdf"/>
      <stop offset="1" stop-color="#f8d9c6"/>
    </linearGradient>
    <filter id="shadow" x="48" y="39" width="1344" height="742" filterUnits="userSpaceOnUse" color-interpolation-filters="sRGB">
      <feDropShadow dx="0" dy="28" stdDeviation="34" flood-color="#0f172a" flood-opacity="0.18"/>
      <feDropShadow dx="0" dy="1" stdDeviation="1" flood-color="#0f172a" flood-opacity="0.18"/>
    </filter>
    <filter id="soft" x="-20%" y="-20%" width="140%" height="140%">
      <feGaussianBlur stdDeviation="18"/>
    </filter>
  </defs>
  <rect width="1440" height="820" fill="url(#wall)"/>
  <circle cx="114" cy="704" r="180" fill="#82e8ff" fill-opacity="0.55" filter="url(#soft)"/>
  <circle cx="1310" cy="104" r="210" fill="#ffcdb0" fill-opacity="0.7" filter="url(#soft)"/>
  <circle cx="762" cy="778" r="145" fill="#a7f3d0" fill-opacity="0.7" filter="url(#soft)"/>

  <g filter="url(#shadow)">
    <rect x="90" y="70" width="1260" height="650" rx="28" fill="#ffffff" fill-opacity="0.92"/>
    <rect x="90.5" y="70.5" width="1259" height="649" rx="27.5" stroke="#0f172a" stroke-opacity="0.12"/>
    <path d="M90 98C90 82.536 102.536 70 118 70H468V720H118C102.536 720 90 707.464 90 692V98Z" fill="#eef4f4" fill-opacity="0.58"/>
    <path d="M468 70H1322C1337.46 70 1350 82.536 1350 98V720H468V70Z" fill="#fff" fill-opacity="0.98"/>
    <path d="M468 70H1322C1337.46 70 1350 82.536 1350 98V140H468V70Z" fill="#fff"/>
    <line x1="468" y1="140.5" x2="1350" y2="140.5" stroke="#0f172a" stroke-opacity="0.1"/>
    <line x1="468.5" y1="70" x2="468.5" y2="720" stroke="#0f172a" stroke-opacity="0.1"/>

    <circle cx="130" cy="107" r="10" fill="#ff5f57"/>
    <circle cx="164" cy="107" r="10" fill="#febc2e"/>
    <circle cx="198" cy="107" r="10" fill="#28c840"/>
    <rect x="238" y="96" width="22" height="22" rx="6" stroke="#111827" stroke-opacity="0.45" stroke-width="2"/>
    <path d="M290 107H264" stroke="#111827" stroke-opacity="0.42" stroke-width="2" stroke-linecap="round"/>
    <path d="M274 97L264 107L274 117" stroke="#111827" stroke-opacity="0.42" stroke-width="2" stroke-linecap="round" stroke-linejoin="round"/>
    <path d="M316 107H342" stroke="#111827" stroke-opacity="0.22" stroke-width="2" stroke-linecap="round"/>
    <path d="M332 97L342 107L332 117" stroke="#111827" stroke-opacity="0.22" stroke-width="2" stroke-linecap="round" stroke-linejoin="round"/>

    <text x="134" y="174" fill="#1f2937" font-family="ui-sans-serif, -apple-system, BlinkMacSystemFont, 'Segoe UI', sans-serif" font-size="23" font-weight="600">New chat</text>
    <text x="134" y="226" fill="#1f2937" font-family="ui-sans-serif, -apple-system, BlinkMacSystemFont, 'Segoe UI', sans-serif" font-size="23" font-weight="500">Search</text>
    <text x="134" y="278" fill="#1f2937" font-family="ui-sans-serif, -apple-system, BlinkMacSystemFont, 'Segoe UI', sans-serif" font-size="23" font-weight="500">Plugins</text>
    <text x="134" y="330" fill="#1f2937" font-family="ui-sans-serif, -apple-system, BlinkMacSystemFont, 'Segoe UI', sans-serif" font-size="23" font-weight="500">Automations</text>
    <text x="118" y="405" fill="#6b7280" font-family="ui-sans-serif, -apple-system, BlinkMacSystemFont, 'Segoe UI', sans-serif" font-size="22">Projects</text>
    <text x="134" y="462" fill="#4b5563" font-family="ui-sans-serif, -apple-system, BlinkMacSystemFont, 'Segoe UI', sans-serif" font-size="23">opaline</text>
    <rect x="108" y="484" width="330" height="48" rx="16" fill="#e5e7eb" fill-opacity="0.75"/>
    <text x="134" y="516" fill="#111827" font-family="ui-sans-serif, -apple-system, BlinkMacSystemFont, 'Segoe UI', sans-serif" font-size="23" font-weight="600">Inspect Electron UI</text>
    <rect x="392" y="499" width="34" height="22" rx="11" fill="#d1d5db"/>
    <text x="404" y="516" fill="#4b5563" font-family="ui-monospace, SFMono-Regular, Menlo, monospace" font-size="15">1</text>
    <text x="134" y="588" fill="#4b5563" font-family="ui-sans-serif, -apple-system, BlinkMacSystemFont, 'Segoe UI', sans-serif" font-size="23">component-system</text>
    <text x="134" y="642" fill="#4b5563" font-family="ui-sans-serif, -apple-system, BlinkMacSystemFont, 'Segoe UI', sans-serif" font-size="23">electron example</text>
    <text x="134" y="678" fill="#111827" font-family="ui-sans-serif, -apple-system, BlinkMacSystemFont, 'Segoe UI', sans-serif" font-size="23" font-weight="600">Settings</text>

    <text x="524" y="113" fill="#111827" font-family="ui-sans-serif, -apple-system, BlinkMacSystemFont, 'Segoe UI', sans-serif" font-size="24" font-weight="700">Inspect Electron UI</text>
    <rect x="1182" y="91" width="110" height="34" rx="16" fill="#f8fafc" stroke="#d8dee8"/>
    <text x="1213" y="114" fill="#111827" font-family="ui-monospace, SFMono-Regular, Menlo, monospace" font-size="14">Goal</text>

    <rect x="524" y="182" width="556" height="92" rx="18" fill="#ffffff" stroke="#e5e7eb"/>
    <text x="550" y="216" fill="#111827" font-family="ui-sans-serif, -apple-system, BlinkMacSystemFont, 'Segoe UI', sans-serif" font-size="18" font-weight="700">Opaline UI copy app</text>
    <text x="550" y="246" fill="#64748b" font-family="ui-sans-serif, -apple-system, BlinkMacSystemFont, 'Segoe UI', sans-serif" font-size="16">Side-by-side shell, extracted tokens, readable components.</text>

    <rect x="524" y="304" width="490" height="178" rx="18" fill="#ffffff" stroke="#e5e7eb"/>
    <text x="550" y="340" fill="#111827" font-family="ui-sans-serif, -apple-system, BlinkMacSystemFont, 'Segoe UI', sans-serif" font-size="20" font-weight="700">Component Library</text>
    <rect x="550" y="364" width="205" height="28" rx="8" fill="#f1f5f9"/>
    <text x="566" y="384" fill="#334155" font-family="ui-monospace, SFMono-Regular, Menlo, monospace" font-size="14">AppShell.tsx</text>
    <rect x="550" y="402" width="245" height="28" rx="8" fill="#f1f5f9"/>
    <text x="566" y="422" fill="#334155" font-family="ui-monospace, SFMono-Regular, Menlo, monospace" font-size="14">sidebar.css</text>
    <rect x="550" y="440" width="300" height="28" rx="8" fill="#ecfeff"/>
    <text x="566" y="460" fill="#0f766e" font-family="ui-monospace, SFMono-Regular, Menlo, monospace" font-size="14">Radix primitives</text>

    <rect x="1118" y="168" width="190" height="300" rx="20" fill="#ffffff" stroke="#e5e7eb"/>
    <text x="1142" y="202" fill="#111827" font-family="ui-sans-serif, -apple-system, BlinkMacSystemFont, 'Segoe UI', sans-serif" font-size="17" font-weight="700">Inspector</text>
    <rect x="1142" y="226" width="140" height="34" rx="10" fill="#f8fafc"/>
    <rect x="1142" y="274" width="96" height="12" rx="6" fill="#cbd5e1"/>
    <rect x="1142" y="300" width="124" height="12" rx="6" fill="#e2e8f0"/>
    <rect x="1142" y="326" width="82" height="12" rx="6" fill="#e2e8f0"/>
    <rect x="1142" y="380" width="132" height="36" rx="10" fill="#f1f5f9"/>

    <rect x="524" y="540" width="712" height="100" rx="24" fill="#ffffff" stroke="#e5e7eb"/>
    <text x="552" y="600" fill="#64748b" font-family="ui-sans-serif, -apple-system, BlinkMacSystemFont, 'Segoe UI', sans-serif" font-size="22">Ask Opaline...</text>
    <circle cx="1194" cy="590" r="28" fill="#0f172a"/>
    <path d="M1194 604V578M1182 590L1194 578L1206 590" stroke="white" stroke-width="3" stroke-linecap="round" stroke-linejoin="round"/>

    <rect x="468" y="662" width="882" height="58" fill="#fafafa"/>
    <rect x="524" y="676" width="210" height="31" rx="12" fill="#f1f5f9"/>
    <text x="560" y="698" fill="#111827" font-family="ui-sans-serif, -apple-system, BlinkMacSystemFont, 'Segoe UI', sans-serif" font-size="18">opaline</text>
    <text x="524" y="754" fill="#111827" font-family="ui-monospace, SFMono-Regular, Menlo, monospace" font-size="16">$ npm run start:example</text>
  </g>
</svg>
