<svg width="1440" height="720" viewBox="0 0 1440 720" fill="none" xmlns="http://www.w3.org/2000/svg" role="img" aria-labelledby="title desc">
  <title id="title">Opaline system map</title>
  <desc id="desc">A component system map showing packages, examples, research internals, and UI systems.</desc>
  <rect width="1440" height="720" fill="#0b1020"/>
  <rect x="70" y="56" width="1300" height="608" rx="36" fill="#111827" stroke="#334155"/>
  <text x="118" y="124" fill="#f8fafc" font-family="ui-sans-serif, -apple-system, BlinkMacSystemFont, 'Segoe UI', sans-serif" font-size="42" font-weight="800">Opaline Component System</text>
  <text x="118" y="164" fill="#94a3b8" font-family="ui-sans-serif, -apple-system, BlinkMacSystemFont, 'Segoe UI', sans-serif" font-size="20">Readable UI package, Electron example, and research internals wired together with Turborepo.</text>

  <g>
    <rect x="118" y="220" width="350" height="320" rx="24" fill="#ecfeff"/>
    <text x="148" y="270" fill="#0f172a" font-family="ui-sans-serif, -apple-system, BlinkMacSystemFont, 'Segoe UI', sans-serif" font-size="28" font-weight="800">@opaline/ui</text>
    <text x="148" y="306" fill="#334155" font-family="ui-sans-serif, -apple-system, BlinkMacSystemFont, 'Segoe UI', sans-serif" font-size="17">Reusable component library</text>
    <rect x="148" y="348" width="145" height="34" rx="12" fill="#cffafe"/>
    <text x="166" y="371" fill="#155e75" font-family="ui-monospace, SFMono-Regular, Menlo, monospace" font-size="15">AppShell</text>
    <rect x="306" y="348" width="112" height="34" rx="12" fill="#cffafe"/>
    <text x="324" y="371" fill="#155e75" font-family="ui-monospace, SFMono-Regular, Menlo, monospace" font-size="15">Sidebar</text>
    <rect x="148" y="396" width="112" height="34" rx="12" fill="#cffafe"/>
    <text x="166" y="419" fill="#155e75" font-family="ui-monospace, SFMono-Regular, Menlo, monospace" font-size="15">Dialog</text>
    <rect x="274" y="396" width="144" height="34" rx="12" fill="#cffafe"/>
    <text x="292" y="419" fill="#155e75" font-family="ui-monospace, SFMono-Regular, Menlo, monospace" font-size="15">BottomPanel</text>
    <rect x="148" y="444" width="122" height="34" rx="12" fill="#cffafe"/>
    <text x="166" y="467" fill="#155e75" font-family="ui-monospace, SFMono-Regular, Menlo, monospace" font-size="15">FileTree</text>
    <rect x="284" y="444" width="134" height="34" rx="12" fill="#cffafe"/>
    <text x="302" y="467" fill="#155e75" font-family="ui-monospace, SFMono-Regular, Menlo, monospace" font-size="15">Composer</text>
  </g>

  <g>
    <rect x="545" y="220" width="350" height="320" rx="24" fill="#f8fafc"/>
    <text x="575" y="270" fill="#0f172a" font-family="ui-sans-serif, -apple-system, BlinkMacSystemFont, 'Segoe UI', sans-serif" font-size="28" font-weight="800">Electron Example</text>
    <text x="575" y="306" fill="#475569" font-family="ui-sans-serif, -apple-system, BlinkMacSystemFont, 'Segoe UI', sans-serif" font-size="17">A runnable desktop shell</text>
    <rect x="575" y="348" width="270" height="44" rx="14" fill="#e2e8f0"/>
    <text x="596" y="376" fill="#0f172a" font-family="ui-monospace, SFMono-Regular, Menlo, monospace" font-size="16">transparent BrowserWindow</text>
    <rect x="575" y="410" width="210" height="44" rx="14" fill="#e2e8f0"/>
    <text x="596" y="438" fill="#0f172a" font-family="ui-monospace, SFMono-Regular, Menlo, monospace" font-size="16">hiddenInset chrome</text>
    <rect x="575" y="472" width="230" height="44" rx="14" fill="#e2e8f0"/>
    <text x="596" y="500" fill="#0f172a" font-family="ui-monospace, SFMono-Regular, Menlo, monospace" font-size="16">library-only runtime</text>
  </g>

  <g>
    <rect x="972" y="220" width="350" height="320" rx="24" fill="#fff7ed"/>
    <text x="1002" y="270" fill="#0f172a" font-family="ui-sans-serif, -apple-system, BlinkMacSystemFont, 'Segoe UI', sans-serif" font-size="28" font-weight="800">Research Internals</text>
    <text x="1002" y="306" fill="#7c2d12" font-family="ui-sans-serif, -apple-system, BlinkMacSystemFont, 'Segoe UI', sans-serif" font-size="17">Extraction and provenance lane</text>
    <rect x="1002" y="348" width="260" height="44" rx="14" fill="#fed7aa"/>
    <text x="1023" y="376" fill="#7c2d12" font-family="ui-monospace, SFMono-Regular, Menlo, monospace" font-size="16">component-system.json</text>
    <rect x="1002" y="410" width="220" height="44" rx="14" fill="#fed7aa"/>
    <text x="1023" y="438" fill="#7c2d12" font-family="ui-monospace, SFMono-Regular, Menlo, monospace" font-size="16">upstream assets</text>
    <rect x="1002" y="472" width="180" height="44" rx="14" fill="#fed7aa"/>
    <text x="1023" y="500" fill="#7c2d12" font-family="ui-monospace, SFMono-Regular, Menlo, monospace" font-size="16">extract scripts</text>
  </g>

  <path d="M468 380H545" stroke="#38bdf8" stroke-width="4" stroke-linecap="round"/>
  <path d="M895 380H972" stroke="#fb923c" stroke-width="4" stroke-linecap="round"/>
  <path d="M117 590H1322" stroke="#334155" stroke-width="2"/>
  <text x="118" y="628" fill="#cbd5e1" font-family="ui-monospace, SFMono-Regular, Menlo, monospace" font-size="18">npm run typecheck  |  npm run build  |  npm run start:example  |  npm run research:refresh</text>
</svg>
